<svg width="99" height="49" viewBox="0 0 99 49" fill="none" xmlns="http://www.w3.org/2000/svg">
<path d="M40.2 9.32H47.8L41.88 39H34.28L40.2 9.32ZM75.7791 9.32L69.8591 39H62.6591L63.0991 36.88C61.3657 38.5333 59.2724 39.36 56.8191 39.36C55.2191 39.36 53.7124 38.9733 52.2991 38.2C50.9124 37.4 49.7924 36.2533 48.9391 34.76C48.0857 33.2667 47.6591 31.5067 47.6591 29.48C47.6591 27.1333 48.1791 25.0133 49.2191 23.12C50.2857 21.2 51.7257 19.6933 53.5391 18.6C55.3524 17.5067 57.3257 16.96 59.4591 16.96C62.5524 16.96 64.7524 17.92 66.0591 19.84L68.1791 9.32H75.7791ZM59.4591 33.24C60.9791 33.24 62.2191 32.68 63.1791 31.56C64.1391 30.44 64.6191 28.9867 64.6191 27.2C64.6191 25.92 64.2591 24.9067 63.5391 24.16C62.8191 23.4133 61.8191 23.04 60.5391 23.04C59.0191 23.04 57.7791 23.6 56.8191 24.72C55.8591 25.84 55.3791 27.3067 55.3791 29.12C55.3791 30.4 55.7391 31.4133 56.4591 32.16C57.1791 32.88 58.1791 33.24 59.4591 33.24ZM79.0688 17.32H86.6288L82.3088 39H74.7488L79.0688 17.32ZM83.9088 14.92C82.6021 14.92 81.5488 14.56 80.7488 13.84C79.9488 13.12 79.5488 12.2267 79.5488 11.16C79.5488 9.90667 79.9888 8.88 80.8688 8.08C81.7754 7.25333 82.9621 6.84 84.4288 6.84C85.7621 6.84 86.8288 7.18667 87.6288 7.88C88.4288 8.54667 88.8288 9.41333 88.8288 10.48C88.8288 11.7867 88.3754 12.8533 87.4688 13.68C86.5621 14.5067 85.3754 14.92 83.9088 14.92ZM90.9697 39.36C89.7164 39.36 88.6764 38.9733 87.8497 38.2C87.0497 37.4 86.6497 36.4 86.6497 35.2C86.6497 33.76 87.1164 32.6 88.0497 31.72C89.0097 30.8133 90.1697 30.36 91.5297 30.36C92.8097 30.36 93.8364 30.7467 94.6097 31.52C95.4097 32.2667 95.8097 33.2667 95.8097 34.52C95.8097 35.9333 95.3297 37.0933 94.3697 38C93.4364 38.9067 92.303 39.36 90.9697 39.36Z" fill="#ADB6CF"/>
<path d="M23.8 33.56H11.88L8.64 39H0.28L18.24 11H26.04L32.8 39H24.92L23.8 33.56ZM22.6 27.72L20.72 18.64L15.36 27.72H22.6Z" fill="#2C67FF"/>
</svg>
